<svg xmlns="http://www.w3.org/2000/svg" width="100" height="100" viewBox="0 0 100 100"><path d="M65.788,30.864c-.494-.524-1.088-.949-1.748-17.161A10.743,10.743,0,0,0,53.191,3.07h-.236C49.78.984,44.528.944,40.707,1.039,34.385.867,29.214,2.563,23.6,5.411a40.345,40.345,0,0,1-7.213,2.881c-.4.118-.678-.367-.855,0s.675,1.525.855,1.9A14.484,14.484,0,0,0,19.026,13.7l7.882,3.6,6.757,1.855a30.991,30.991,0,0,0,8.212,0,96.4,96.4,0,0,0,11.314-2.337l5.692,12.52,2.069,2.6ZM50.686,17.3C52.912,19.841,44.945,19.156,50.686,17.3Z" transform="translate(7.151 -0.99)" fill="#1895a7" opacity="0.22"/><g transform="translate(0 0)"><path d="M78.517,69.442,60.266,65.564a3.611,3.611,0,0,0-.084-.944A3.352,3.352,0,0,0,58.395,62.4l-6.577-3.216V54.6a21.517,21.517,0,0,0,9.245-14.686h.866a5.551,5.551,0,0,0,5.586-4.749,5.271,5.271,0,0,0-1.4-4.106,5.651,5.651,0,0,0-1.76-1.259V13.786a10.813,10.813,0,0,0-10.92-10.7H53.2A18.862,18.862,0,0,0,42.377,0,38.236,38.236,0,0,0,24.056,4.11a63.508,63.508,0,0,1-9.147,3.463A1.472,1.472,0,0,0,14,8.339a1.344,1.344,0,0,0,0,1.177,12.941,12.941,0,0,0,2.388,3.422c-.726.89-2.109,3.148-2.109,7.6v9.389a5.229,5.229,0,0,0-3.032,5.917,5.34,5.34,0,0,0,5.28,4.129h1.1a21.516,21.516,0,0,0,9.231,14.686V59.24L20.3,62.457a3.311,3.311,0,0,0-1.787,2.217,3.611,3.611,0,0,0-.084.944L-3.151,70.012a10.664,10.664,0,0,0-7.736,10.169V98.289a1.442,1.442,0,0,0,.692,1.373,1.506,1.506,0,0,0,1.562,0,1.442,1.442,0,0,0,.692-1.373V80.181a7.806,7.806,0,0,1,5.586-7.473l22.012-4.517L21.6,70.737l-2.206,2.176a4.45,4.45,0,0,0-.866,5.228l4.189,8.212H18.763V84.711a1.442,1.442,0,0,0-.692-1.373,1.506,1.506,0,0,0-1.562,0,1.442,1.442,0,0,0-.692,1.373v1.642h-6.4a1.412,1.412,0,0,0-1.059.4,1.354,1.354,0,0,0-.407,1.038v9.252a1.421,1.421,0,0,0,.4,1.061,1.481,1.481,0,0,0,1.062.445H25.215a1.45,1.45,0,0,0,1.4-1.451V93.964l1.927,3.791a1.485,1.485,0,0,0,1.4.794,1.633,1.633,0,0,0,.656-.151,1.437,1.437,0,0,0,.656-1.944L21.193,76.841a1.6,1.6,0,0,1,.321-1.889L24.628,71.9a1.416,1.416,0,0,0,.14-1.889L21.43,65.7a.445.445,0,0,1-.084-.37.509.509,0,0,1,.251-.287l5.8-2.847,4.092,13.755a1.491,1.491,0,0,0,1.74.737,1.452,1.452,0,0,0,1.053-1.544l-.642-2.163a17.648,17.648,0,0,0,11.311,0L39.361,92.006,36.177,81.317a1.475,1.475,0,0,0-1.762-.811,1.436,1.436,0,0,0-1.031,1.619l4.538,15.384a1.476,1.476,0,0,0,2.793,0L51.273,62.142l5.8,2.847a.426.426,0,0,1,.237.287.39.39,0,0,1,0,.37l-3.338,4.366a1.416,1.416,0,0,0,.14,1.889l3.114,3.052a1.618,1.618,0,0,1,.307,1.889L47.46,96.455a1.437,1.437,0,0,0,.656,1.944,1.591,1.591,0,0,0,.656.151,1.485,1.485,0,0,0,1.4-.794l9.957-19.613a4.45,4.45,0,0,0-.866-5.228l-2.22-2.176L59,68.191l21.571,4.626a7.806,7.806,0,0,1,5.586,7.473V98.4s.214,1.082.692,1.373a1.506,1.506,0,0,0,1.562,0A1.442,1.442,0,0,0,89.1,98.4V80.29a10.712,10.712,0,0,0-4.632-8.765A40.737,40.737,0,0,0,78.517,69.442ZM23.693,95.661H10.9V89.3h4.916v.1a1.483,1.483,0,0,0,2.947,0v-.1h4.929ZM25.285,6.7a35.2,35.2,0,0,1,17.093-3.8c5.432,0,10.292,2.231,11.3,5.187a1.446,1.446,0,0,0,.743.835,1.493,1.493,0,0,0,1.128.069,1.39,1.39,0,0,0,.874-.709,1.344,1.344,0,0,0,.048-1.111q-.126-.37-.293-.739a7.841,7.841,0,0,1,5.348,7.363V29.321H59.847a1.659,1.659,0,0,1-1.676-1.642V26.132c0-6.693-4.943-11.606-5.153-11.825a1.544,1.544,0,0,0-1.48-.356c-8.169,2.477-19.76,4.667-28.25.465a15.836,15.836,0,0,1-5.739-4.681,70.98,70.98,0,0,0,7.736-3.052ZM48.955,59.87l-2.793,9.458a14.613,14.613,0,0,1-13.462,0L29.907,59.87V56.284a22.3,22.3,0,0,0,19.1,0ZM39.4,55.545A18.822,18.822,0,0,1,20.341,36.958a1.483,1.483,0,0,0-2.947,0v.1H16.5a2.494,2.494,0,0,1-1.84-.8,2.391,2.391,0,0,1-.618-1.878,2.6,2.6,0,0,1,2.681-2.163h2.123a4.577,4.577,0,0,0,4.622-4.53V22.2a1.442,1.442,0,0,0-.692-1.373,1.506,1.506,0,0,0-1.562,0,1.442,1.442,0,0,0-.692,1.373v5.475a1.659,1.659,0,0,1-1.676,1.642H17.171V20.534a9.43,9.43,0,0,1,1.4-5.625,19.965,19.965,0,0,0,3.184,2.012,27.8,27.8,0,0,0,11.814,2.737,56.543,56.543,0,0,0,17.917-2.737A15,15,0,0,1,55.2,26.063V27.61a4.591,4.591,0,0,0,4.622,4.53h2.36a2.494,2.494,0,0,1,1.834.8,2.392,2.392,0,0,1,.624,1.87,2.6,2.6,0,0,1-2.681,2.149H61.3a1.454,1.454,0,0,0-1.48-1.369h0a1.383,1.383,0,0,0-1.4,1.369,18.836,18.836,0,0,1-19.09,18.587Z" transform="translate(10.894 0.01)" fill="#1895a7"/><g transform="translate(60.24 31.948)"><g transform="translate(12.366 50.254)"><g transform="translate(0.553 1.979)"><path d="M30.727,39.9l-.054.054-2.949,2.837.712,4.095a.539.539,0,0,1-.771.583l-3.747-1.943L20.172,47.47A.535.535,0,0,1,19.4,46.9l.712-4.095L17.153,39.96h0l-.043-.037a.524.524,0,0,1,.294-.9h.134l4.009-.573L23.415,34.7a.533.533,0,0,1,.953,0l1.863,3.747,4.009.573h.145a.524.524,0,0,1,.294.9Z" transform="translate(-16.949 -34.41)" fill="#ffca52" opacity="0.22"/></g><g transform="translate(0 0)"><path d="M19.456,49.878a1.265,1.265,0,0,0,1.328.108l4.1-2.138,4.105,2.138a1.265,1.265,0,0,0,1.828-1.341l-.778-4.5,3.3-3.163a1.283,1.283,0,0,0-.69-2.17l-4.586-.633L26.022,34.07a1.25,1.25,0,0,0-2.265-.038l-2.037,4.112-4.574.633a1.265,1.265,0,0,0-.69,2.157l3.3,3.163-.784,4.5a1.265,1.265,0,0,0,.5,1.265Zm-2.163-9.8,4.9-.708a.633.633,0,0,0,.474-.342L24.871,34.6l2.2,4.428a.633.633,0,0,0,.474.342l4.934.708L28.932,43.5a.633.633,0,0,0-.183.557l.841,4.839L25.162,46.6a.633.633,0,0,0-.582,0L20.2,48.866l.835-4.833a.633.633,0,0,0-.183-.563Z" transform="translate(-16.075 -33.33)" fill="#ffca52"/><path d="M29.571,50.627a1.772,1.772,0,0,1-.812-.2l-3.875-2.018-3.868,2.018a1.776,1.776,0,0,1-.808.2h0a1.754,1.754,0,0,1-1.048-.345l-.468-.345.084-.084a1.771,1.771,0,0,1-.292-1.348l.738-4.231-3.11-2.978a1.765,1.765,0,0,1,.959-3.012h.008l4.311-.6,1.919-3.875a1.757,1.757,0,0,1,1.571-.98h.008a1.772,1.772,0,0,1,1.585,1.025L28.4,37.723l4.337.6a1.783,1.783,0,0,1,.96,3.019l-.005.005-3.11,2.979.733,4.235a1.765,1.765,0,0,1-1.739,2.068Zm-4.687-3.344,4.337,2.258a.779.779,0,0,0,.615.039l-4.9-2.535a.134.134,0,0,0-.122,0l-4.881,2.525.007.005a.778.778,0,0,0,.62-.035Zm8.334-7.226-3.938,3.8a.132.132,0,0,0-.037.115l.932,5.363a.76.76,0,0,0,.15-.6L29.5,43.97l3.491-3.344A.763.763,0,0,0,33.217,40.058Zm-16.641.03a.761.761,0,0,0,.23.487L20.3,43.92l-.832,4.769a.768.768,0,0,0,.152.621l.926-5.362a.133.133,0,0,0-.038-.118Zm8.294,5.942a1.137,1.137,0,0,1,.521.127l3.533,1.827-.669-3.847a1.135,1.135,0,0,1,.328-1l2.808-2.708-3.922-.563a1.134,1.134,0,0,1-.85-.612l-1.75-3.53-1.759,3.528a1.134,1.134,0,0,1-.85.613l-3.878.561L21.2,43.108a1.133,1.133,0,0,1,.331,1.011l-.664,3.841,3.484-1.8A1.137,1.137,0,0,1,24.871,46.031ZM17.22,39.271a.76.76,0,0,0-.555.394l5.452-.789a.133.133,0,0,0,.1-.072l2.466-4.946a.761.761,0,0,0-.477.4L22.051,38.6Zm7.838-5.418,2.456,4.954a.131.131,0,0,0,.1.069l5.487.788a.769.769,0,0,0-.523-.355l-4.841-.668-2.168-4.363A.769.769,0,0,0,25.058,33.853Z" transform="translate(-16.075 -33.33)" fill="#ffca52"/></g></g></g></g></svg>