<svg xmlns="http://www.w3.org/2000/svg" width="79" height="79" viewBox="0 0 79 79">
  <defs>
    <style>
      .cls-1, .cls-2 {
        fill: #1895a7;
      }

      .cls-1 {
        opacity: 0.22;
      }
    </style>
  </defs>
  <g id="Group_36854" data-name="Group 36854" transform="translate(-47.7 -281.4)">
    <g id="nurse" transform="translate(66.97 284.265)">
      <path id="Path_92125" data-name="Path 92125" class="cls-1" d="M103.022,1.387c5.819,0,11.463.97,19.835,5.6l-4.089,10.211c-5.028-2.609-12.9-3.21-15.746-3.21s-10.718.6-15.746,3.21L83.187,6.983c8.372-4.625,14.017-5.6,19.835-5.6Z" transform="translate(-83.187 -1.387)"/>
    </g>
    <g id="nurse-2" data-name="nurse" transform="translate(47.7 281.4)">
      <path id="Path_92124" data-name="Path 92124" class="cls-2" d="M53.983,344H52.667a1.334,1.334,0,0,0-.931.376L39.5,356.3,27.264,344.376a1.334,1.334,0,0,0-.931-.376l-1.448.006C8.837,345.571,0,352.856,0,364.536a1.3,1.3,0,0,0,1.317,1.284,1.3,1.3,0,0,0,1.317-1.284c0-11.485,9.491-15.9,18.681-17.472l-1.426,2.78a1.269,1.269,0,0,0,.59,1.722l4.538,2.212v4.341a1.288,1.288,0,0,0,.939,1.229l12.228,3.576v1.612a1.317,1.317,0,0,0,2.633,0v-1.612l12.228-3.576a1.288,1.288,0,0,0,.939-1.229v-4.341l4.538-2.205a1.268,1.268,0,0,0,.59-1.722l-1.421-2.77c9.248,1.584,18.676,6.011,18.676,17.456a1.317,1.317,0,0,0,2.633,0c0-11.68-8.837-18.965-25.017-20.536ZM27.65,357.163v-4.179a1.28,1.28,0,0,0-.728-1.155l-4.088-1.992,1.649-3.209c.177-.019.358-.045.534-.061h.771l12.4,12.083v1.594Zm28.517-7.315-4.088,1.992a1.28,1.28,0,0,0-.728,1.145v4.179l-10.533,3.08V358.65l12.4-12.083h.636c.221.022.448.053.671.077Zm0,0" transform="translate(0 -286.82)"/>
      <path id="Path_92125-2" data-name="Path 92125" class="cls-2" d="M82.063,44.652a37.2,37.2,0,0,0,16.82,6.525v4.013a1.334,1.334,0,0,0,2.667,0V51.259a13.807,13.807,0,0,0,5.333,1.364,13.807,13.807,0,0,0,5.333-1.364v3.931a1.334,1.334,0,0,0,2.667,0V51.177A37.193,37.193,0,0,0,131.7,44.651c3.158-2.376,2.195-11.463-3.127-29.459-.121-.413-.219-.741-.292-.993l2.5-6.021a1.261,1.261,0,0,0-.572-1.591C120.274,1.121,113.7,0,106.883,0S93.493,1.121,83.55,6.587a1.262,1.262,0,0,0-.577,1.591l2.5,6.021c-.073.257-.171.58-.292.993-5.316,18-6.28,27.083-3.12,29.46Zm10.154-8.714V29.081a71.8,71.8,0,0,0,21.066-6.886c1.544,1.668,5.024,5.171,8.267,6.643v7.1c0,7.583-9.837,14.118-14.667,14.118S92.216,43.522,92.216,35.938Zm-5.333-3.85a2.618,2.618,0,0,1,2.667-2.567v5.134A2.618,2.618,0,0,1,86.883,32.088Zm37.333-2.567a2.569,2.569,0,1,1,0,5.134ZM106.883,2.568c6.159,0,12.134.988,20.995,5.7l-4.328,10.4c-5.322-2.658-13.658-3.27-16.667-3.27s-11.345.612-16.667,3.27l-4.328-10.4c8.861-4.713,14.836-5.7,20.995-5.7ZM88.311,21.013a1.316,1.316,0,0,0,.848.751A1.377,1.377,0,0,0,90.3,21.6c4.06-2.644,12.328-3.63,16.585-3.63s12.525.986,16.585,3.63a1.377,1.377,0,0,0,1.139.165,1.316,1.316,0,0,0,.848-.751l1.2-2.9c5.908,20.618,4.117,23.976,3.4,24.515a34.53,34.53,0,0,1-12.776,5.537c3.467-2.741,6.351-6.561,6.836-10.944h.1a5.138,5.138,0,1,0,0-10.268c-2.454,0-7.217-4.441-9.643-7.24a1.37,1.37,0,0,0-1.763-.246c-.077.05-8,5.021-23.481,7.5a5.13,5.13,0,1,0,.22,10.25h.1c.486,4.383,3.366,8.2,6.837,10.944A34.553,34.553,0,0,1,83.7,42.628c-.715-.538-2.506-3.9,3.4-24.515Zm0,0" transform="translate(-67.383 -0.001)"/>
      <path id="Path_92129" data-name="Path 92129" class="cls-2" d="M217.283,37.134h1.283v1.283a1.284,1.284,0,0,0,2.567,0V37.134h1.284a1.283,1.283,0,0,0,0-2.567h-1.284V33.283a1.284,1.284,0,0,0-2.567,0v1.283h-1.283a1.283,1.283,0,0,0,0,2.567Zm0,0" transform="translate(-180.351 -26.866)"/>
    </g>
  </g>
</svg>
