<svg xmlns="http://www.w3.org/2000/svg" width="81" height="80.999" viewBox="0 0 81 80.999">
  <g id="Group_36874" data-name="Group 36874" transform="translate(-1467 -694.46)">
    <g id="make-appointment-icon-2" transform="translate(1442.6 676.842)">
      <g id="Group_36690" data-name="Group 36690" transform="translate(72.999 65.59)" opacity="0.22">
        <path id="Path_29065" data-name="Path 29065" d="M140.781,107.114V99.6H120.5v21.75h3.051c0-.339-.056-.734-.056-1.073C124.4,108.526,132.59,105.306,140.781,107.114Z" transform="translate(-120.5 -99.6)" />
      </g>
      <g id="Group_36691" data-name="Group 36691" transform="translate(29.484 32.558)" opacity="0.22">
        <path id="Path_29066" data-name="Path 29066" d="M92.837,36.3H41.318c-4.376,0-7.918,3.842-7.918,8.587V51.61h67.355V44.887C100.755,40.142,97.213,36.3,92.837,36.3Z" transform="translate(-33.4 -36.3)"/>
      </g>
      <path id="Path_29067" data-name="Path 29067" d="M97.069,73.167l1.265-3.551a1.247,1.247,0,0,0-.685-1.56,1.206,1.206,0,0,0-1.528.7l-1.107,3.013V40.345a9.331,9.331,0,0,0-9.222-9.416h-.685V28.938A1.239,1.239,0,0,0,83.9,27.7a1.205,1.205,0,0,0-1.212,1.238v1.991H37.89v-1.4a1.205,1.205,0,0,0-1.212-1.238,1.239,1.239,0,0,0-1.212,1.238v1.4H33.622A9.331,9.331,0,0,0,24.4,40.345v39.6a9.331,9.331,0,0,0,9.222,9.416H77.255A13.4,13.4,0,0,0,103.393,84.9,13.3,13.3,0,0,0,97.069,73.167ZM51.644,68.539h18.5v18.4H48.852V47.985h21.29V66.118h-18.5a1.239,1.239,0,0,0-1.212,1.238A1.193,1.193,0,0,0,51.644,68.539ZM72.513,47.985h20.13V66.118H72.513S72.513,47.985,72.513,47.985ZM26.877,79.946V68.539H43.055A1.239,1.239,0,0,0,44.267,67.3a1.205,1.205,0,0,0-1.212-1.238H26.877V47.985h7.9a1.238,1.238,0,0,0,0-2.475h-7.9V40.291A6.91,6.91,0,0,1,33.727,33.3h1.844v1.991a1.205,1.205,0,0,0,1.212,1.238A1.239,1.239,0,0,0,38,35.287V33.3H82.788v1.4A1.239,1.239,0,0,0,84,35.932a1.205,1.205,0,0,0,1.212-1.238V33.3H85.9a6.91,6.91,0,0,1,6.851,6.995V45.51h-48.8a1.239,1.239,0,0,0-1.212,1.238,1.205,1.205,0,0,0,1.212,1.238h2.477V86.941h-12.7A6.91,6.91,0,0,1,26.877,79.946Zm45.636,6.995v-18.4h20.13v2.906A13.356,13.356,0,0,0,76.623,84.9a13.361,13.361,0,0,0,.158,2.045Zm17.6,9.255a11.3,11.3,0,0,1,0-22.6,11.052,11.052,0,0,1,4,.753l-4.374,12-3.32-6.887a1.156,1.156,0,0,0-1.581-.538,1.2,1.2,0,0,0-.527,1.614l4.532,9.416a1.21,1.21,0,0,0,1.054.7h.053a1.126,1.126,0,0,0,1.054-.807L96.226,75.48A11.467,11.467,0,0,1,101.18,84.9,11.217,11.217,0,0,1,90.113,96.2Z" />
    </g>
    <g id="Rectangle_17470" data-name="Rectangle 17470" transform="translate(1540 696.46)"   stroke-width="2">
      <rect width="6" height="6" rx="2" stroke="none"/>
      <rect x="-1" y="-1" width="8" height="8" rx="3" />
    </g>
  </g>
</svg>
